<?xml version="1.0" standalone="no"?>
<!DOCTYPE svg PUBLIC "-//W3C//DTD SVG 20010904//EN"
 "http://www.w3.org/TR/2001/REC-SVG-20010904/DTD/svg10.dtd">
<svg version="1.0" xmlns="http://www.w3.org/2000/svg"
 width="786.000000pt" height="728.000000pt" viewBox="0 0 786.000000 728.000000"
 preserveAspectRatio="xMidYMid meet">

<g transform="translate(0.000000,728.000000) scale(0.100000,-0.100000)"
fill="#000000" stroke="none">
<path d="M0 3640 l0 -3640 3930 0 3930 0 0 3640 0 3640 -3930 0 -3930 0 0
-3640z m4200 3475 c526 -58 977 -210 1435 -483 111 -67 270 -176 281 -194 3
-5 -45 17 -108 48 -436 219 -966 319 -1453 274 -544 -51 -1061 -258 -1471
-590 -541 -440 -873 -1012 -996 -1716 -20 -114 -22 -163 -22 -419 0 -225 3
-313 17 -393 49 -301 132 -562 258 -816 55 -112 150 -276 160 -276 11 0 1389
3068 1404 3127 45 172 -15 233 -210 211 -184 -21 -334 -161 -429 -401 -60
-150 -93 -358 -81 -499 l6 -78 -29 0 c-48 0 -115 53 -150 118 -102 190 -77
431 63 622 89 121 282 274 430 340 142 64 333 94 436 70 286 -67 384 -335 382
-1055 0 -303 -5 -397 -53 -1125 -16 -245 -32 -497 -35 -560 l-6 -115 65 190
c131 387 341 842 659 1425 150 276 334 579 554 913 155 235 191 269 288 270
44 1 145 -20 145 -29 0 -2 -18 -50 -39 -106 -170 -450 -377 -1374 -510 -2278
-60 -410 -75 -576 -75 -845 -1 -246 0 -251 27 -330 38 -112 39 -109 -40 -102
-91 7 -134 22 -184 60 -49 37 -81 96 -101 181 -17 81 -17 549 1 701 38 329
102 706 177 1045 22 100 247 973 259 1008 28 77 -155 -188 -281 -408 -257
-449 -689 -1409 -910 -2024 -29 -82 -56 -151 -59 -154 -3 -3 -29 -7 -58 -10
-105 -8 -164 71 -193 258 -22 143 -14 675 20 1345 30 578 42 1030 31 1129 l-7
70 -135 -315 c-74 -173 -240 -568 -368 -879 -394 -956 -541 -1290 -693 -1580
-66 -126 -162 -279 -188 -301 -25 -21 -15 -43 71 -145 435 -521 1031 -859
1700 -964 165 -26 468 -36 635 -21 532 46 1033 242 1449 564 146 113 398 367
502 507 280 374 446 761 523 1219 16 96 25 128 29 109 9 -36 -9 -379 -28 -523
-100 -761 -451 -1473 -995 -2015 -567 -567 -1282 -911 -2090 -1006 -179 -20
-587 -24 -740 -6 -290 35 -534 89 -779 174 -915 316 -1649 983 -2050 1865
-198 436 -296 866 -308 1358 -18 697 163 1351 538 1953 273 439 692 850 1142
1121 663 400 1426 569 2187 486z m3326 -1050 c9 -55 21 -103 26 -106 6 -4 50
-12 99 -19 49 -7 92 -16 94 -20 3 -4 -32 -13 -78 -20 -128 -20 -121 -13 -141
-132 -21 -115 -26 -113 -46 20 -15 97 -10 93 -143 112 -48 7 -85 15 -83 18 4
4 56 14 179 36 24 5 37 12 37 23 0 22 32 194 36 191 1 -2 10 -48 20 -103z
m-968 -327 c7 -31 12 -34 64 -43 76 -13 80 -22 15 -30 -29 -4 -59 -10 -65 -14
-7 -4 -16 -31 -22 -61 -6 -29 -12 -55 -14 -58 -3 -2 -10 23 -17 57 -12 65 -13
65 -92 77 -59 8 -53 16 20 29 61 11 63 13 79 100 l7 40 9 -32 c4 -18 12 -48
16 -65z m562 -278 c20 -121 40 -223 43 -227 4 -3 109 -23 233 -44 124 -21 228
-40 230 -42 3 -2 -102 -21 -231 -43 -212 -35 -236 -41 -240 -59 -3 -11 -18
-103 -35 -205 -35 -214 -41 -243 -45 -238 -2 2 -20 103 -41 223 -20 121 -41
225 -47 231 -7 6 -114 28 -239 49 -125 21 -226 40 -224 42 2 2 106 22 232 43
125 22 231 43 234 47 4 5 17 69 29 143 35 216 53 311 59 306 3 -3 22 -105 42
-226z"/>
</g>
</svg>
